<?xml version="1.0" encoding="utf-8"?>
<!-- Generator: Adobe Illustrator 14.0.0, SVG Export Plug-In . SVG Version: 6.00 Build 43363)  -->
<!DOCTYPE svg PUBLIC "-//W3C//DTD SVG 1.1//EN" "http://www.w3.org/Graphics/SVG/1.1/DTD/svg11.dtd">
<svg version="1.1" id="_x36_4px" xmlns="http://www.w3.org/2000/svg" xmlns:xlink="http://www.w3.org/1999/xlink" x="0px" y="0px"
	 width="52px" height="54px" viewBox="0 0 52 54" enable-background="new 0 0 52 54" xml:space="preserve">
<g>
	<path fill="#FFFFFF" stroke="#FFFFFF" stroke-miterlimit="10" d="M51.211,15.134L35.893,0.771
		c-0.287-0.268-0.736-0.253-1.006,0.033l-7.289,7.773c-3.389,3.615-5.507,8.673-6.329,11.087l-0.233-0.22
		c-0.011-0.011-0.025-0.013-0.036-0.023c-0.01-0.008-0.016-0.022-0.027-0.03c-0.028-0.021-0.062-0.027-0.091-0.042
		c-0.043-0.024-0.083-0.047-0.129-0.062c-0.044-0.012-0.088-0.016-0.134-0.02c-0.045-0.005-0.088-0.011-0.133-0.007
		c-0.046,0.004-0.09,0.018-0.136,0.03c-0.042,0.014-0.083,0.025-0.122,0.043c-0.044,0.023-0.081,0.053-0.12,0.086
		c-0.026,0.02-0.056,0.031-0.079,0.056c-0.01,0.01-0.014,0.023-0.022,0.035c-0.009,0.012-0.023,0.017-0.03,0.029
		c-0.514,0.695-3.088,4.215-3.356,5.338c-0.201,0.84,0.195,1.612,0.544,2.292c0.397,0.772,0.623,1.278,0.406,1.772
		c-0.305,0.686-3.158,3.102-5.674,5.234c-4.667,3.955-9.958,8.438-10.86,11.043c-1.081,3.125-0.207,4.775,1.551,6.424
		c1.19,1.113,2.353,1.824,3.92,1.775c0.755-0.023,1.603-0.225,2.591-0.643c2.543-1.064,6.676-6.635,10.321-11.549
		c1.965-2.646,4.192-5.648,4.861-5.996c0.478-0.252,0.995-0.055,1.792,0.291c0.701,0.305,1.498,0.648,2.324,0.396
		c1.104-0.344,4.451-3.137,5.111-3.695c0.012-0.008,0.018-0.023,0.025-0.031c0.01-0.01,0.023-0.014,0.035-0.023
		c0.021-0.027,0.033-0.059,0.051-0.086c0.029-0.041,0.057-0.078,0.076-0.121c0.018-0.043,0.027-0.086,0.035-0.131
		c0.01-0.043,0.021-0.086,0.021-0.133c0.002-0.045-0.006-0.09-0.014-0.133c-0.008-0.047-0.016-0.088-0.031-0.133
		c-0.018-0.043-0.043-0.082-0.066-0.123c-0.02-0.027-0.025-0.061-0.051-0.088c-0.008-0.012-0.021-0.018-0.031-0.025
		c-0.012-0.012-0.016-0.025-0.023-0.035l-0.24-0.225c2.312-0.969,7.295-3.434,10.66-7.023l7.289-7.773
		C51.514,15.854,51.498,15.403,51.211,15.134z M27.977,34.559c-0.32,0.102-0.814-0.115-1.334-0.342
		c-0.851-0.369-1.907-0.828-3.021-0.246c-0.913,0.475-2.542,2.635-5.345,6.41c-3.185,4.291-7.546,10.168-9.729,11.086
		c-2.39,0.998-3.51,0.52-4.985-0.861c-1.474-1.383-2.026-2.471-1.179-4.918c0.774-2.238,6.358-6.969,10.434-10.424
		c3.589-3.039,5.639-4.803,6.056-5.746c0.509-1.148-0.018-2.174-0.441-2.997c-0.26-0.505-0.504-0.982-0.427-1.31
		c0.12-0.5,1.366-2.402,2.645-4.176L31.973,31.65C30.285,33.039,28.467,34.404,27.977,34.559z M42.916,22.94
		c-3.574,3.812-9.053,6.28-10.766,6.923l-9.73-9.123c0.534-1.75,2.645-7.377,6.219-11.188l6.801-7.254l14.277,13.388L42.916,22.94z"
		/>
	<path fill="#FFFFFF" d="M6.033,44.853c-0.407,0.434-0.62,1.001-0.602,1.597c0.02,0.595,0.27,1.146,0.703,1.555
		c0.436,0.407,1.002,0.62,1.596,0.6c0.596-0.018,1.148-0.268,1.554-0.701c0.408-0.436,0.623-1.002,0.603-1.597
		c-0.02-0.596-0.27-1.147-0.705-1.555C8.288,43.911,6.874,43.958,6.033,44.853z M8.438,47.106c-0.39,0.417-1.092,0.439-1.508,0.049
		c-0.207-0.194-0.327-0.459-0.336-0.743c-0.009-0.284,0.093-0.557,0.288-0.764c0.203-0.216,0.472-0.328,0.744-0.337
		c0.273-0.008,0.549,0.086,0.764,0.288c0.208,0.194,0.326,0.458,0.336,0.743C8.734,46.628,8.632,46.898,8.438,47.106z"/>
</g>
</svg>
