<svg xmlns="http://www.w3.org/2000/svg" xmlns:xlink="http://www.w3.org/1999/xlink" id="_x36_4px" x="0px" y="0px" width="52px" height="54px" viewBox="0 0 52 54" xml:space="preserve">
<g>
	<path fill="#FFFFFF" d="M5.066,21.324C4.476,21.324,4,21.8,4,22.389c0,0.588,0.476,1.064,1.066,1.064h2.391v5.827   c0,0.588,0.477,1.066,1.066,1.066s1.066-0.479,1.066-1.066v-5.827h5.849c0.588,0,1.065-0.477,1.065-1.064v-5.851h5.851   c0.588,0,1.065-0.476,1.065-1.065V9.623h5.827c0.588,0,1.066-0.476,1.066-1.064c0-0.589-0.479-1.066-1.066-1.066h-5.827V5.102   c0-0.588-0.476-1.065-1.065-1.065c-0.588,0-1.065,0.476-1.065,1.065v2.392h-4.785V5.102c0-0.588-0.476-1.065-1.065-1.065   c-0.588,0-1.065,0.476-1.065,1.065v2.392H9.588V5.102c0-0.588-0.477-1.065-1.066-1.065S7.457,4.513,7.457,5.102v2.392H5.066   C4.476,7.493,4,7.97,4,8.559c0,0.588,0.476,1.064,1.066,1.064h2.391v4.785H5.066C4.476,14.408,4,14.885,4,15.473   c0,0.588,0.476,1.065,1.066,1.065h2.391v4.785L5.066,21.324L5.066,21.324z M21.287,9.623v4.785h-4.785V9.623H21.287z M9.588,9.623   h4.784v4.785H9.588V9.623z M9.588,16.538h4.784v4.785H9.588V16.538z"></path>
	<path fill="#FFFFFF" d="M47.664,4.036h-8.269c-0.283,0-0.553,0.112-0.753,0.311L4.312,38.679C4.112,38.879,4,39.149,4,39.432v8.268   c0,0.589,0.476,1.065,1.066,1.065h42.598c0.588,0,1.064-0.477,1.064-1.065V5.102C48.729,4.513,48.252,4.036,47.664,4.036z    M46.6,46.635H6.129v-6.762L39.837,6.166H46.6V46.635z"></path>
	<path fill="#FFFFFF" d="M40.688,39.185c-0.85,0-1.54,0.69-1.54,1.539c0,0.846,0.691,1.537,1.54,1.537   c0.848,0,1.537-0.691,1.537-1.537C42.225,39.875,41.535,39.185,40.688,39.185z"></path>
	<path fill="#FFFFFF" d="M40.688,31.612c-0.85,0-1.54,0.689-1.54,1.536c0,0.851,0.691,1.54,1.54,1.54c0.848,0,1.537-0.69,1.537-1.54   C42.227,32.302,41.535,31.612,40.688,31.612z"></path>
	<path fill="#FFFFFF" d="M40.688,24.04c-0.85,0-1.54,0.69-1.54,1.537c0,0.85,0.691,1.538,1.54,1.538   c0.848,0,1.537-0.689,1.537-1.538C42.227,24.73,41.535,24.04,40.688,24.04z"></path>
	<path fill="#FFFFFF" d="M39.147,18.004c0,0.849,0.691,1.538,1.54,1.538c0.848,0,1.537-0.69,1.537-1.538s-0.69-1.538-1.537-1.538   C39.839,16.466,39.147,17.156,39.147,18.004z"></path>
	<path fill="#FFFFFF" d="M33.113,39.185c-0.848,0-1.537,0.69-1.537,1.539c0,0.846,0.69,1.537,1.537,1.537   c0.849,0,1.538-0.691,1.538-1.537C34.651,39.875,33.963,39.185,33.113,39.185z"></path>
	<path fill="#FFFFFF" d="M25.541,39.185c-0.848,0-1.538,0.69-1.538,1.539c0,0.846,0.69,1.537,1.538,1.537   c0.848,0,1.539-0.691,1.539-1.537C27.079,39.875,26.389,39.185,25.541,39.185z"></path>
	<path fill="#FFFFFF" d="M17.968,39.185c-0.849,0-1.538,0.69-1.538,1.539c0,0.846,0.689,1.537,1.538,1.537s1.539-0.691,1.539-1.537   C19.506,39.875,18.816,39.185,17.968,39.185z"></path>
</g>
</svg>